<?xml version="1.0" encoding="utf-8"?>
<!-- Generator: Adobe Illustrator 19.1.0, SVG Export Plug-In . SVG Version: 6.00 Build 0)  -->
<svg version="1.1" id="Layer_1" xmlns="http://www.w3.org/2000/svg" xmlns:xlink="http://www.w3.org/1999/xlink" x="0px" y="0px"
	 viewBox="-939 522.6 39.8 37.4" style="enable-background:new -939 522.6 39.8 37.4;" xml:space="preserve">
<style type="text/css">
	.st0{fill:#808083;}
</style>
<g>
	<path class="st0" d="M-909.3,541.5l-7.3,8.5l-3.2-3.2l-1.9,1.8l4.2,4.3c0.3,0.3,0.6,0.4,1,0.4l0,0c0.4,0,0.7-0.2,1-0.5l8.3-9.5
		L-909.3,541.5z"/>
	<path class="st0" d="M-923.7,550.6h-4.7V532h13.7v9.3c0,0.7,0.6,1.3,1.3,1.3c0.7,0,1.3-0.6,1.3-1.3v-10.6c0-0.7-0.6-1.3-1.3-1.3
		h-16.2c-0.8-0.1-1.4,0.5-1.4,1.3V552c0,0.7,0.6,1.3,1.3,1.3h6c0.7,0,1.3-0.6,1.3-1.3C-922.3,551.2-922.9,550.6-923.7,550.6z"/>
	<rect x="-925.5" y="535.2" class="st0" width="8.1" height="2"/>
	<rect x="-925.5" y="539" class="st0" width="8.1" height="2"/>
	<rect x="-925.5" y="542.8" class="st0" width="5.7" height="2"/>
</g>
</svg>
