<?xml version="1.0" encoding="utf-8"?>
<!-- Generator: Adobe Illustrator 19.1.0, SVG Export Plug-In . SVG Version: 6.00 Build 0)  -->
<svg version="1.1" id="Layer_1" xmlns="http://www.w3.org/2000/svg" xmlns:xlink="http://www.w3.org/1999/xlink" x="0px" y="0px"
	 viewBox="-946 529.1 25.4 23.9" style="enable-background:new -946 529.1 25.4 23.9;" xml:space="preserve">
<style type="text/css">
	.st0{fill:#3F3F3F;}
</style>
<g>
	<g>
		<path class="st0" d="M-926.9,547.4h-6.7c-0.6,0-1-0.4-1-1c0-0.6,0.4-1,1-1h5.7v-8.7h-5.7c-0.6,0-1-0.4-1-1c0-0.6,0.4-1,1-1h6.7
			c0.6,0,1,0.4,1,1v10.7C-925.9,547-926.3,547.4-926.9,547.4z"/>
		<path class="st0" d="M-930.2,542.1h-9.5c-0.6,0-1-0.4-1-1s0.4-1,1-1h9.5c0.6,0,1,0.4,1,1S-929.7,542.1-930.2,542.1z"/>
		<path class="st0" d="M-936.6,545.2c-0.3,0-0.5-0.1-0.7-0.3l-3.1-3.1c-0.2-0.2-0.3-0.4-0.3-0.7s0.1-0.5,0.3-0.7l3.1-3.1
			c0.4-0.4,1-0.4,1.4,0c0.4,0.4,0.4,1,0,1.4l-2.4,2.4l2.4,2.4c0.4,0.4,0.4,1,0,1.4C-936.1,545.1-936.4,545.2-936.6,545.2z"/>
	</g>
</g>
</svg>
