<?xml version="1.0" encoding="utf-8"?>
<!-- Generator: Adobe Illustrator 19.1.0, SVG Export Plug-In . SVG Version: 6.00 Build 0)  -->
<svg version="1.1" id="Layer_1" xmlns="http://www.w3.org/2000/svg" xmlns:xlink="http://www.w3.org/1999/xlink" x="0px" y="0px"
	 viewBox="-939 522.6 39.8 37.4" style="enable-background:new -939 522.6 39.8 37.4;" xml:space="preserve">
<style type="text/css">
	.st0{fill:#808083;}
</style>
<g>
	<g>
		<g>
			<g>
				<g>
					<path class="st0" d="M-926.4,551.7c0.2,1.3,1.3,2.4,2.7,2.4h9.4c1.3,0,2.5-1.1,2.7-2.4l1.9-16.7h-18.7L-926.4,551.7z
						 M-914.8,537.1c0-0.4,0.4-0.8,0.9-0.7c0.4,0,0.8,0.4,0.7,0.9l-1.1,13.5c0,0.4-0.4,0.8-0.9,0.7c-0.4,0-0.8-0.4-0.7-0.9
						L-914.8,537.1z M-919.9,537.2c0-0.4,0.4-0.8,0.8-0.8c0.4,0,0.8,0.4,0.8,0.8v13.4c0,0.4-0.4,0.8-0.8,0.8c-0.4,0-0.8-0.4-0.8-0.8
						V537.2z M-924.3,536.4c0.4,0,0.8,0.3,0.9,0.7l1.1,13.5c0,0.4-0.3,0.8-0.7,0.9c-0.4,0-0.8-0.3-0.9-0.7l-1.1-13.6
						C-925.1,536.8-924.8,536.4-924.3,536.4z"/>
					<path class="st0" d="M-916.3,530.1c0-0.1,0-0.2,0-0.3l0,0c0-0.7-0.6-1.2-1.2-1.2h-2.8c-0.7,0-1.2,0.6-1.2,1.2v0.1
						c0,0.1,0,0.2,0,0.3L-916.3,530.1L-916.3,530.1z"/>
					<path class="st0" d="M-910.8,531.2h-16.6c-1.1,0-2,0.7-2,1.7v0.7h20.5v-0.7C-908.9,531.9-909.7,531.3-910.8,531.2z"/>
				</g>
			</g>
		</g>
	</g>
</g>
</svg>
