<?xml version="1.0" encoding="utf-8"?>
<!-- Generator: Adobe Illustrator 19.1.0, SVG Export Plug-In . SVG Version: 6.00 Build 0)  -->
<svg version="1.1" id="Layer_1" xmlns="http://www.w3.org/2000/svg" xmlns:xlink="http://www.w3.org/1999/xlink" x="0px" y="0px"
	 viewBox="-946 529.1 25.4 23.9" style="enable-background:new -946 529.1 25.4 23.9;" xml:space="preserve">
<style type="text/css">
	.st0{fill:#3F3F3F;}
</style>
<g>
	<g>
		<path class="st0" d="M-926.1,546.1h-13.8v-10.7c0-0.3-0.2-0.5-0.5-0.5c-0.4,0-0.6,0.2-0.6,0.5v11.2c0,0.3,0.2,0.5,0.5,0.5h14.3
			c0.3,0,0.5-0.2,0.5-0.5C-925.6,546.4-925.8,546.1-926.1,546.1z"/>
		<path class="st0" d="M-938.3,542.5c0.2,0,0.3,0,0.5-0.1l2.4-1.6l0,0c0.1-0.1,0.3-0.1,0.4-0.1l2.1,1.5c0,0,0.1,0,0.1,0.1
			c0.6,0.3,1.4,0.3,2.1-0.1c0,0,0,0,0.1-0.1l2.6-2l1.2,1.2c0.2,0.2,0.4,0.1,0.4-0.2l0.2-3.3c0-0.3-0.2-0.5-0.5-0.5l-3.3,0.1
			c-0.3,0-0.4,0.2-0.2,0.4l1,1l-2.5,1.9c-0.1,0.1-0.3,0.1-0.4,0l-2.1-1.6c0,0-0.1,0-0.1-0.1c-0.7-0.3-1.6-0.3-2.2,0.2l-2.4,1.6
			c-0.4,0.3-0.5,0.8-0.2,1.1C-938.8,542.4-938.6,542.5-938.3,542.5z"/>
	</g>
</g>
</svg>
