<?xml version="1.0" encoding="utf-8"?>
<!-- Generator: Adobe Illustrator 19.1.0, SVG Export Plug-In . SVG Version: 6.00 Build 0)  -->
<svg version="1.1" id="Layer_1" xmlns="http://www.w3.org/2000/svg" xmlns:xlink="http://www.w3.org/1999/xlink" x="0px" y="0px"
	 viewBox="-946 529.1 25.4 23.9" style="enable-background:new -946 529.1 25.4 23.9;" xml:space="preserve">
<style type="text/css">
	.st0{fill:url(#SVGID_1_);}
	.st1{fill:url(#SVGID_2_);}
	.st2{fill:url(#SVGID_3_);}
	.st3{fill:url(#SVGID_4_);}
	.st4{fill:url(#SVGID_5_);}
</style>
<g>
	
		<linearGradient id="SVGID_1_" gradientUnits="userSpaceOnUse" x1="-939.4121" y1="543.25" x2="-923.7542" y2="543.25" gradientTransform="matrix(1 0 0 -1 0 1084.2)">
		<stop  offset="5.618000e-03" style="stop-color:#E9C07D"/>
		<stop  offset="0.2623" style="stop-color:#E0B36C"/>
		<stop  offset="0.7697" style="stop-color:#C9923F"/>
		<stop  offset="1" style="stop-color:#BE8129"/>
	</linearGradient>
	<path class="st0" d="M-930.4,545.1v-7.5c0-0.5-0.4-0.8-0.8-0.8c-0.4,0-0.8,0.3-0.8,0.8v7.5H-930.4z"/>
	
		<linearGradient id="SVGID_2_" gradientUnits="userSpaceOnUse" x1="-939.4121" y1="544.2" x2="-923.7542" y2="544.2" gradientTransform="matrix(1 0 0 -1 0 1084.2)">
		<stop  offset="5.618000e-03" style="stop-color:#E9C07D"/>
		<stop  offset="0.2623" style="stop-color:#E0B36C"/>
		<stop  offset="0.7697" style="stop-color:#C9923F"/>
		<stop  offset="1" style="stop-color:#BE8129"/>
	</linearGradient>
	<path class="st1" d="M-927.1,545.1v-9.4c0-0.5-0.4-0.8-0.8-0.8c-0.5,0-0.8,0.4-0.8,0.8v9.4H-927.1z"/>
	
		<linearGradient id="SVGID_3_" gradientUnits="userSpaceOnUse" x1="-939.4121" y1="542.25" x2="-923.7542" y2="542.25" gradientTransform="matrix(1 0 0 -1 0 1084.2)">
		<stop  offset="5.618000e-03" style="stop-color:#E9C07D"/>
		<stop  offset="0.2623" style="stop-color:#E0B36C"/>
		<stop  offset="0.7697" style="stop-color:#C9923F"/>
		<stop  offset="1" style="stop-color:#BE8129"/>
	</linearGradient>
	<path class="st2" d="M-933.7,545.1v-5.5c0-0.5-0.4-0.8-0.8-0.8s-0.8,0.4-0.8,0.8v5.5H-933.7z"/>
	
		<linearGradient id="SVGID_4_" gradientUnits="userSpaceOnUse" x1="-939.4121" y1="541.3" x2="-923.7542" y2="541.3" gradientTransform="matrix(1 0 0 -1 0 1084.2)">
		<stop  offset="5.618000e-03" style="stop-color:#E9C07D"/>
		<stop  offset="0.2623" style="stop-color:#E0B36C"/>
		<stop  offset="0.7697" style="stop-color:#C9923F"/>
		<stop  offset="1" style="stop-color:#BE8129"/>
	</linearGradient>
	<path class="st3" d="M-937,545.1v-3.6c0-0.5-0.4-0.8-0.8-0.8c-0.5,0-0.8,0.4-0.8,0.8v3.6H-937z"/>
	
		<linearGradient id="SVGID_5_" gradientUnits="userSpaceOnUse" x1="-939.4121" y1="543.1098" x2="-923.7542" y2="543.1098" gradientTransform="matrix(1 0 0 -1 0 1084.2)">
		<stop  offset="5.618000e-03" style="stop-color:#E9C07D"/>
		<stop  offset="0.2623" style="stop-color:#E0B36C"/>
		<stop  offset="0.7697" style="stop-color:#C9923F"/>
		<stop  offset="1" style="stop-color:#BE8129"/>
	</linearGradient>
	<path class="st4" d="M-925.9,546.2h-14.3v-10.7c0-0.3-0.2-0.5-0.5-0.5c-0.3-0.1-0.6,0.2-0.6,0.5v11.2c0,0.3,0.2,0.5,0.5,0.5h14.8
		c0.3,0,0.5-0.2,0.5-0.5C-925.3,546.4-925.6,546.2-925.9,546.2z"/>
</g>
</svg>
