<?xml version="1.0" encoding="utf-8"?>
<!-- Generator: Adobe Illustrator 19.1.0, SVG Export Plug-In . SVG Version: 6.00 Build 0)  -->
<svg version="1.1" id="Layer_1" xmlns="http://www.w3.org/2000/svg" xmlns:xlink="http://www.w3.org/1999/xlink" x="0px" y="0px"
	 viewBox="-946 529.1 25.4 23.9" style="enable-background:new -946 529.1 25.4 23.9;" xml:space="preserve">
<style type="text/css">
	.st0{fill:url(#SVGID_1_);}
</style>
<g>
	
		<linearGradient id="SVGID_1_" gradientUnits="userSpaceOnUse" x1="-941.0665" y1="543.15" x2="-925.5251" y2="543.15" gradientTransform="matrix(1 0 0 -1 0 1084.2)">
		<stop  offset="5.618000e-03" style="stop-color:#E9C07D"/>
		<stop  offset="0.2623" style="stop-color:#E0B36C"/>
		<stop  offset="0.7697" style="stop-color:#C9923F"/>
		<stop  offset="1" style="stop-color:#BE8129"/>
	</linearGradient>
	<path class="st0" d="M-926.3,534.2h-13.9c-0.5,0-0.8,0.4-0.8,0.8v4c0,0.5,0.4,0.8,0.8,0.8h1.8v6.8c0,0.7,0.6,1.3,1.3,1.3h7.7
		c0.7,0,1.3-0.6,1.3-1.3v-6.9h1.8c0.5,0,0.8-0.4,0.8-0.8V535C-925.5,534.6-925.9,534.2-926.3,534.2z M-927.2,538.1h-0.9v-1.3h-1.1
		v9.8c0,0.1-0.1,0.2-0.2,0.2h-1.2v-10h-2.2v10.1h-4.4c-0.1,0-0.2-0.1-0.2-0.2v-9.9h-1.1v1.4h-0.9v-2.4h12.3v2.3H-927.2z"/>
</g>
</svg>
