<?xml version="1.0" encoding="utf-8"?>
<!-- Generator: Adobe Illustrator 22.1.0, SVG Export Plug-In . SVG Version: 6.00 Build 0)  -->
<svg version="1.1" id="Layer_1" xmlns="http://www.w3.org/2000/svg" xmlns:xlink="http://www.w3.org/1999/xlink" x="0px" y="0px"
	 viewBox="0 0 32 34" style="enable-background:new 0 0 32 34;" xml:space="preserve">
<style type="text/css">
	.st0{fill:#4D4E50;}
	.st1{fill:#009F4B;}
</style>
<g>
	<path class="st0" d="M9.2,12.9c0,0.3,0.2,0.5,0.5,0.5h4.2c0.3,0,0.5-0.2,0.5-0.5v-0.1c0-0.3-0.2-0.5-0.5-0.5H9.7
		c-0.3,0-0.5,0.2-0.5,0.5V12.9z"/>
	<path class="st0" d="M9.7,10.3h4.2c0.3,0,0.5-0.2,0.5-0.5V9.7c0-0.3-0.2-0.5-0.5-0.5H9.7c-0.3,0-0.5,0.2-0.5,0.5v0.1
		C9.2,10.1,9.4,10.3,9.7,10.3z"/>
	<path class="st0" d="M18.9,16L18.9,16c0-0.3-0.2-0.5-0.5-0.5H9.7c-0.3,0-0.5,0.2-0.5,0.5v0.1c0,0.3,0.2,0.5,0.5,0.5h7.9
		C18,16.4,18.4,16.2,18.9,16z"/>
	<path class="st0" d="M15.5,18.5H9.7c-0.3,0-0.5,0.2-0.5,0.5v0.1c0,0.3,0.2,0.5,0.5,0.5h5.2C15,19.2,15.2,18.9,15.5,18.5z"/>
	<path class="st0" d="M9.7,21.7c-0.3,0-0.5,0.2-0.5,0.5v0.1c0,0.3,0.2,0.5,0.5,0.5h4.6c0-0.2,0-0.3,0-0.5c0-0.2,0-0.4,0-0.6H9.7z"/>
	<path class="st0" d="M9.2,24.5l-0.2,0c-0.7-0.2-1.2-0.8-1.2-1.5V9.3c0-0.9,0.7-1.6,1.6-1.6h6.5l0,2.8c0,1.3,1,2.3,2.3,2.3l2.5,0
		l0,2.9c0.1,0,0.2,0,0.3,0c0.2,0,0.4,0,0.6,0l0-2.9h0l0,0v0h0l-2.8-3l-2.8-3v0H9.3C8,6.8,6.9,7.9,6.9,9.3v13.6c0,1,0.6,1.9,1.6,2.3
		v0.2H15c-0.2-0.3-0.3-0.6-0.4-0.9H9.2z"/>
	<path class="st0" d="M20.9,16.6c-3.1,0-5.7,2.5-5.7,5.7s2.5,5.7,5.7,5.7c3.1,0,5.7-2.5,5.7-5.7S24,16.6,20.9,16.6z M20.9,27.1
		c-2.6,0-4.8-2.1-4.8-4.8s2.1-4.8,4.8-4.8c2.6,0,4.8,2.1,4.8,4.8S23.5,27.1,20.9,27.1z"/>
	<polygon class="st1" points="21.8,19.6 20.1,19.6 20.1,21.5 18.1,21.5 18.1,23.2 20.1,23.2 20.1,25.2 21.8,25.2 21.8,23.2 
		23.8,23.2 23.8,21.5 21.8,21.5 	"/>
</g>
</svg>
