<?xml version="1.0" encoding="utf-8"?>
<!-- Generator: Adobe Illustrator 19.1.0, SVG Export Plug-In . SVG Version: 6.00 Build 0)  -->
<svg version="1.1" id="Layer_1" xmlns="http://www.w3.org/2000/svg" xmlns:xlink="http://www.w3.org/1999/xlink" x="0px" y="0px"
	 viewBox="-946 529.1 25.4 23.9" style="enable-background:new -946 529.1 25.4 23.9;" xml:space="preserve">
<style type="text/css">
	.st0{fill:url(#SVGID_1_);}
	.st1{fill:url(#SVGID_2_);}
</style>
<g>
	<g>
		
			<linearGradient id="SVGID_1_" gradientUnits="userSpaceOnUse" x1="-941.1376" y1="543.1125" x2="-925.454" y2="543.1125" gradientTransform="matrix(1 0 0 -1 0 1084.2)">
			<stop  offset="5.618000e-03" style="stop-color:#E9C07D"/>
			<stop  offset="0.2623" style="stop-color:#E0B36C"/>
			<stop  offset="0.7697" style="stop-color:#C9923F"/>
			<stop  offset="1" style="stop-color:#BE8129"/>
		</linearGradient>
		<path class="st0" d="M-926,538.2c-0.1-0.2-0.4-0.5-6.5-4c-0.6-0.3-1.3-0.3-1.9,0c-5.6,3.4-5.8,3.5-5.9,3.6
			c-0.5,0.5-0.9,1.1-0.9,1.8v6.2c0,1.3,1.1,2.4,2.4,2.4h10.9c1.3,0,2.4-1.1,2.4-2.4v-6.2C-925.5,539.1-925.6,538.6-926,538.2z
			 M-927.1,545.8c0,0.4-0.3,0.7-0.7,0.7h-11c-0.4,0-0.7-0.3-0.7-0.7v-6.2c0-0.2,0.1-0.4,0.2-0.5c0.3-0.2,2.6-1.6,5.8-3.5
			c0,0,0,0,0.1,0h0.1c3.7,2.1,5.7,3.3,6,3.6c0.1,0.1,0.1,0.2,0.1,0.4v6.2H-927.1z"/>
		
			<linearGradient id="SVGID_2_" gradientUnits="userSpaceOnUse" x1="-939.083" y1="542.752" x2="-927.7257" y2="542.752" gradientTransform="matrix(1 0 0 -1 0 1084.2)">
			<stop  offset="5.618000e-03" style="stop-color:#E9C07D"/>
			<stop  offset="0.2623" style="stop-color:#E0B36C"/>
			<stop  offset="0.7697" style="stop-color:#C9923F"/>
			<stop  offset="1" style="stop-color:#BE8129"/>
		</linearGradient>
		<path class="st1" d="M-928.6,539.6l-4.8,2.8l-4.9-2.9c-0.3-0.2-0.6-0.1-0.7,0.2c-0.1,0.3-0.1,0.6,0.2,0.7l5.2,3
			c0.1,0.1,0.2,0.1,0.3,0.1c0.1,0,0.2,0,0.3-0.1l5.1-3c0.3-0.2,0.3-0.5,0.2-0.7C-928,539.5-928.3,539.4-928.6,539.6z"/>
	</g>
</g>
</svg>
