<?xml version="1.0" encoding="utf-8"?>
<!-- Generator: Adobe Illustrator 19.1.0, SVG Export Plug-In . SVG Version: 6.00 Build 0)  -->
<svg version="1.1" id="Layer_1" xmlns="http://www.w3.org/2000/svg" xmlns:xlink="http://www.w3.org/1999/xlink" x="0px" y="0px"
	 viewBox="-946 529.1 25.4 23.9" style="enable-background:new -946 529.1 25.4 23.9;" xml:space="preserve">
<style type="text/css">
	.st0{fill:#3F3F3F;}
</style>
<g>
	<g>
		<g>
			<g>
				<path class="st0" d="M-927.9,539.1l0.5-1.4c0.1-0.3,0-0.7-0.3-0.9l-1.2-0.9l-0.5-1.4c-0.1-0.3-0.4-0.6-0.8-0.6h-1.5l-1.1-0.8
					c-0.3-0.2-0.7-0.2-1,0l-1.2,0.9h-1.5c-0.4,0-0.7,0.2-0.8,0.6l-0.4,1.3l-1.2,0.9c-0.3,0.2-0.4,0.6-0.3,0.9l0.5,1.4l-0.5,1.4
					c-0.1,0.3,0,0.7,0.3,0.9l1.2,0.9l0.5,1.4c0,0.1,0.1,0.2,0.1,0.2l-1.3,3.6c-0.1,0.3,0.1,0.4,0.4,0.3l1.6-0.6
					c0.4-0.1,0.5,0,0.7,0.3l0.8,1.5c0.1,0.2,0.4,0.3,0.5,0l1.3-3.6l1.3,3.6c0.1,0.3,0.3,0.2,0.5,0l0.8-1.5c0.2-0.3,0.3-0.4,0.7-0.3
					l1.6,0.6c0.2,0.1,0.5-0.1,0.4-0.3l-1.3-3.6c0-0.1,0.1-0.1,0.1-0.2l0.5-1.4l1.2-0.9c0.3-0.2,0.4-0.6,0.3-0.9L-927.9,539.1z
					 M-929.5,539.4l0.4,1.1l-0.9,0.7c-0.1,0.1-0.2,0.2-0.3,0.4l-0.4,1.1h-1.2c-0.2,0-0.3,0.1-0.5,0.2l-0.9,0.7l-0.9-0.7
					c-0.1-0.1-0.3-0.2-0.5-0.2h-1.2l-0.4-1.1c-0.1-0.2-0.2-0.3-0.3-0.4l-0.9-0.7l0.4-1.1c0.1-0.2,0.1-0.4,0-0.5l-0.4-1.1l1-0.7
					c0.1-0.1,0.2-0.2,0.3-0.4l0.4-1.1h1.2c0.2,0,0.3-0.1,0.5-0.2l0.9-0.7l0.9,0.7c0.1,0.1,0.3,0.2,0.5,0.2h1.2l0.4,1.1
					c0.1,0.2,0.2,0.3,0.3,0.4l0.9,0.7l-0.4,1.1C-929.5,539-929.5,539.2-929.5,539.4z"/>
				<path class="st0" d="M-933.4,536.2c-1.6,0-2.9,1.3-2.9,2.9c0,0.3,0.2,0.5,0.5,0.5s0.5-0.2,0.5-0.5c0-1,0.8-1.8,1.8-1.8
					c0.3,0,0.5-0.2,0.5-0.5C-932.8,536.4-933.1,536.2-933.4,536.2z"/>
			</g>
		</g>
	</g>
</g>
</svg>
