<?xml version="1.0" encoding="utf-8"?>
<!-- Generator: Adobe Illustrator 19.1.0, SVG Export Plug-In . SVG Version: 6.00 Build 0)  -->
<svg version="1.1" id="Layer_1" xmlns="http://www.w3.org/2000/svg" xmlns:xlink="http://www.w3.org/1999/xlink" x="0px" y="0px"
	 viewBox="-895 480.6 127.9 120.4" style="enable-background:new -895 480.6 127.9 120.4;" xml:space="preserve">
<style type="text/css">
	.st0{fill:url(#SVGID_1_);}
</style>
<linearGradient id="SVGID_1_" gradientUnits="userSpaceOnUse" x1="-885" y1="542.4" x2="-777.1" y2="542.4" gradientTransform="matrix(1 0 0 -1 0 1083.2)">
	<stop  offset="5.618000e-03" style="stop-color:#E9C07D"/>
	<stop  offset="0.2623" style="stop-color:#E0B36C"/>
	<stop  offset="0.7697" style="stop-color:#C9923F"/>
	<stop  offset="1" style="stop-color:#BE8129"/>
</linearGradient>
<path class="st0" d="M-787.2,535.9l-10.4,6.8l0,0l0,0c-1.6,1-3.4,1.4-5.2,1c-3.9-0.7-6.4-4.5-5.7-8.4l2.3-12.3
	c0.1-0.4-0.1-0.7-0.5-0.9c-0.3-0.1-0.7,0-0.9,0.3l-7,10.2c0,0,0,0.1-0.1,0.1c0,0.1-0.1,0.1-0.1,0.2c-1.1,1.4-2.6,2.4-4.3,2.8
	c-3.8,0.8-7.6-1.7-8.5-5.5c0,0,0,0,0-0.1c0,0,0,0,0-0.1l-2.5-12.2c-0.1-0.4-0.4-0.6-0.8-0.6c-0.4,0-0.7,0.3-0.8,0.6l-2.5,12.2
	c0,0,0,0,0,0.1c0,0,0,0,0,0.1c-0.4,1.8-1.5,3.4-3,4.4c-3.2,2.2-7.6,1.4-9.9-1.8l-0.1-0.1c0-0.1-0.1-0.1-0.1-0.2l-6.9-10.2
	c-0.2-0.3-0.6-0.4-0.9-0.3s-0.5,0.5-0.5,0.9l2.3,12.3c0.4,1.8,0,3.7-1.1,5.3c-2.1,3.3-6.6,4.2-9.9,2.1l0,0l0,0l-10.4-6.8
	c-0.3-0.2-0.7-0.2-1,0.1c-0.3,0.3-0.3,0.7-0.1,1l15.1,23h59.6l15.1-23c0.2-0.3,0.2-0.7-0.1-1C-786.5,535.7-786.9,535.7-787.2,535.9z
	 M-857.6,576.4h53.2v-8.2h-53.2V576.4z M-831,513.4c2.3,0,4.1-1.8,4.1-4.1c0-2.3-1.8-4.1-4.1-4.1s-4.1,1.8-4.1,4.1
	C-835.1,511.5-833.3,513.4-831,513.4z M-803.1,519c2.3,0,4.1-1.8,4.1-4.1s-1.8-4.1-4.1-4.1c-2.3,0-4.1,1.8-4.1,4.1
	S-805.4,519-803.1,519z M-858.3,518.8c2.3,0,4.1-1.8,4.1-4.1s-1.8-4.1-4.1-4.1s-4.1,1.8-4.1,4.1
	C-862.4,516.9-860.5,518.8-858.3,518.8z M-880.9,525.5c-2.3,0-4.1,1.8-4.1,4.1c0,2.3,1.8,4.1,4.1,4.1c2.3,0,4.1-1.8,4.1-4.1
	C-876.8,527.3-878.6,525.5-880.9,525.5z M-781.2,525.5c-2.3,0-4.1,1.8-4.1,4.1c0,2.3,1.8,4.1,4.1,4.1s4.1-1.8,4.1-4.1
	C-777.1,527.3-779,525.5-781.2,525.5z"/>
</svg>
