<?xml version="1.0" encoding="utf-8"?>
<!-- Generator: Adobe Illustrator 19.1.0, SVG Export Plug-In . SVG Version: 6.00 Build 0)  -->
<svg version="1.1" id="Layer_1" xmlns="http://www.w3.org/2000/svg" xmlns:xlink="http://www.w3.org/1999/xlink" x="0px" y="0px"
	 viewBox="-946 529.1 25.4 23.9" style="enable-background:new -946 529.1 25.4 23.9;" xml:space="preserve">
<style type="text/css">
	.st0{fill:#3F3F3F;}
</style>
<g>
	<g>
		<path class="st0" d="M-930.4,545.1v-7.5c0-0.5-0.4-0.8-0.8-0.8c-0.4,0-0.8,0.3-0.8,0.8v7.5H-930.4z"/>
		<path class="st0" d="M-927.1,545.1v-9.4c0-0.5-0.4-0.8-0.8-0.8c-0.5,0-0.8,0.4-0.8,0.8v9.4H-927.1z"/>
		<path class="st0" d="M-933.7,545.1v-5.5c0-0.5-0.4-0.8-0.8-0.8s-0.8,0.4-0.8,0.8v5.5H-933.7z"/>
		<path class="st0" d="M-937,545.1v-3.6c0-0.5-0.4-0.8-0.8-0.8c-0.5,0-0.8,0.4-0.8,0.8v3.6H-937z"/>
		<path class="st0" d="M-925.9,546.2h-14.3v-10.7c0-0.3-0.2-0.5-0.5-0.5c-0.3-0.1-0.6,0.2-0.6,0.5v11.2c0,0.3,0.2,0.5,0.5,0.5h14.8
			c0.3,0,0.5-0.2,0.5-0.5C-925.3,546.4-925.6,546.2-925.9,546.2z"/>
	</g>
</g>
</svg>
