<?xml version="1.0" encoding="utf-8"?>
<!-- Generator: Adobe Illustrator 19.1.0, SVG Export Plug-In . SVG Version: 6.00 Build 0)  -->
<svg version="1.1" id="Layer_1" xmlns="http://www.w3.org/2000/svg" xmlns:xlink="http://www.w3.org/1999/xlink" x="0px" y="0px"
	 viewBox="-946 529.1 25.4 23.9" style="enable-background:new -946 529.1 25.4 23.9;" xml:space="preserve">
<style type="text/css">
	.st0{fill:url(#SVGID_1_);}
</style>
<g>
	
		<linearGradient id="SVGID_1_" gradientUnits="userSpaceOnUse" x1="-940.8707" y1="543.15" x2="-925.7506" y2="543.15" gradientTransform="matrix(1 0 0 -1 0 1084.2)">
		<stop  offset="5.618000e-03" style="stop-color:#E9C07D"/>
		<stop  offset="0.2623" style="stop-color:#E0B36C"/>
		<stop  offset="0.7697" style="stop-color:#C9923F"/>
		<stop  offset="1" style="stop-color:#BE8129"/>
	</linearGradient>
	<path class="st0" d="M-929.2,548.3c-0.3,0-0.5-0.1-0.8-0.3l-3.2-2.3h-0.3l-3.2,2.3c-0.6,0.4-1.2,0.3-1.5-0.1
		c-0.1-0.2-0.3-0.6-0.1-1.1l1.3-3.7c0-0.1,0-0.2-0.1-0.3l-3.2-2.3c-0.7-0.5-0.6-1-0.5-1.2c0.1-0.2,0.3-0.7,1.1-0.7h3.9
		c0.1,0,0.2-0.1,0.2-0.2l1.2-3.7c0.3-0.8,0.8-0.9,1-0.9c0.2,0,0.8,0.1,1,0.9l1.2,3.7c0,0.1,0.2,0.2,0.2,0.2h3.9
		c0.8,0,1.1,0.5,1.1,0.7c0.1,0.2,0.2,0.8-0.5,1.2l-3.2,2.3c-0.1,0-0.1,0.2-0.1,0.3l1.2,3.7c0.2,0.5,0,0.9-0.1,1.1
		C-928.6,548.2-928.9,548.3-929.2,548.3z M-933.3,544c0.4,0,0.8,0.1,1.1,0.3l1.7,1.3l-0.7-2c-0.2-0.7,0.1-1.7,0.7-2.1l1.7-1.3h-2.2
		c-0.8,0-1.6-0.6-1.8-1.3l-0.7-2l-0.7,2c-0.2,0.7-1,1.3-1.8,1.3h-1.9l1.7,1.3c0.6,0.5,0.9,1.4,0.7,2.1l-0.7,2l1.7-1.3
		C-934.1,544.2-933.7,544-933.3,544z"/>
</g>
</svg>
