<?xml version="1.0" encoding="utf-8"?>
<!-- Generator: Adobe Illustrator 19.1.0, SVG Export Plug-In . SVG Version: 6.00 Build 0)  -->
<svg version="1.1" id="Layer_1" xmlns="http://www.w3.org/2000/svg" xmlns:xlink="http://www.w3.org/1999/xlink" x="0px" y="0px"
	 viewBox="-946 529.1 25.4 23.9" style="enable-background:new -946 529.1 25.4 23.9;" xml:space="preserve">
<style type="text/css">
	.st0{fill:url(#SVGID_1_);}
</style>
<g>
	
		<linearGradient id="SVGID_1_" gradientUnits="userSpaceOnUse" x1="-939.9746" y1="543.15" x2="-926.6169" y2="543.15" gradientTransform="matrix(1 0 0 -1 0 1084.2)">
		<stop  offset="5.618000e-03" style="stop-color:#E9C07D"/>
		<stop  offset="0.2623" style="stop-color:#E0B36C"/>
		<stop  offset="0.7697" style="stop-color:#C9923F"/>
		<stop  offset="1" style="stop-color:#BE8129"/>
	</linearGradient>
	<path class="st0" d="M-926.7,546.1c-0.8-3.9-1.4-4.9-2.4-5.5c-0.3-0.2-0.7-0.3-1.1-0.5c0.6-0.9,0.9-1.9,0.9-2.9
		c0-2.2-1.6-3.7-4.1-3.7c-2.4,0-4.1,1.5-4.1,3.7c0,1,0.3,2,0.9,2.9c-0.4,0.1-0.8,0.3-1.1,0.5c-1,0.6-1.6,1.6-2.4,5.6
		c-0.1,0.6,0,1.2,0.4,1.7c0.4,0.4,0.9,0.7,1.5,0.7h9.3c0.7,0,1.2-0.3,1.6-0.7C-926.7,547.4-926.5,546.8-926.7,546.1z M-933.3,535.1
		c1.4,0,2.5,0.7,2.5,2.1c0,1.4-1.1,3.2-2.5,3.2c-1.4,0-2.5-1.7-2.5-3.2S-934.7,535.1-933.3,535.1z M-928.7,547c-2.1,0-9.1,0-9.3,0
		c-0.4,0-0.4-0.4-0.4-0.5c0.8-3.8,1.3-4.3,1.7-4.6c0.2-0.1,1-0.4,1-0.4c0.3,0,0.4,0.1,0.5,0.4l0.9,4.2l0.6-3.7
		c-0.2-0.1-0.4-0.2-0.4-0.3v-0.3c0-0.2,0.5-0.4,0.8-0.4s0.8,0.2,0.8,0.4v0.3c0,0.2-0.2,0.3-0.4,0.3l0.7,3.7l0.8-4.2
		c0.1-0.2,0.3-0.4,0.5-0.4c0,0,0.7,0.3,1,0.4c0.4,0.3,0.9,0.8,1.7,4.5C-928.2,546.6-928.2,547-928.7,547z"/>
</g>
</svg>
