<?xml version="1.0" encoding="utf-8"?>
<!-- Generator: Adobe Illustrator 19.1.0, SVG Export Plug-In . SVG Version: 6.00 Build 0)  -->
<svg version="1.1" id="Layer_1" xmlns="http://www.w3.org/2000/svg" xmlns:xlink="http://www.w3.org/1999/xlink" x="0px" y="0px"
	 viewBox="-843 511.6 231.5 59.4" style="enable-background:new -843 511.6 231.5 59.4;" xml:space="preserve">
<style type="text/css">
	.st0{fill:#FFFFFF;}
</style>
<g>
	<g>
		<path class="st0" d="M-788.8,541.3c0-8.9-7.2-16.1-16.1-16.1c-8.9,0-16.1,7.2-16.1,16.1c0,8.9,7.2,16.1,16.1,16.1l0,0l0,0
			C-796.1,557.4-788.8,550.2-788.8,541.3z M-802.2,536.1l-3.5-0.2l0.4-2.9L-802.2,536.1z M-808.9,540.3l1.4-0.2
			c0.8-0.1,1.3-0.7,1.4-1.4l0.2-1.4l3.8,0.2l-6.7,6.7L-808.9,540.3z M-807.4,538.5c0,0.2-0.1,0.3-0.3,0.3l-4.9,0.7l5.9-5.9
			L-807.4,538.5z M-810.3,540.5l0.2,3.5l-3-3L-810.3,540.5z M-814.9,539.9c0.6-4.5,4.2-8.1,8.7-8.7L-814.9,539.9z M-815.1,540.9
			L-815.1,540.9l4.8,4.8l-2.3,2.3c-1.6-1.8-2.5-4.1-2.5-6.7C-815.1,541.2-815.1,541.1-815.1,540.9z M-800.6,535.9l-4.7-4.7l0,0l0,0
			c0.1,0,0.2,0,0.4,0l0,0l0,0c2.5,0,4.8,0.9,6.7,2.5L-800.6,535.9z M-819.8,541.3c0-7.9,6.2-14.4,14.1-14.7v3.3
			c-6,0.4-10.8,5.4-10.8,11.5s4.8,11.1,10.8,11.5v3.3C-813.4,555.7-819.8,549.2-819.8,541.3z M-804.2,556v-3.3
			c2.8-0.2,5.4-1.3,7.4-3.3c0.3-0.3,0.3-0.7,0-1c-0.3-0.3-0.7-0.3-1,0c-1.9,1.9-4.5,3-7.2,3c-2.5,0-4.9-0.9-6.7-2.5l2.7-2.7l0,0
			l8.8-8.8l0,0l3.2-3.2c0.1-0.1,0.2-0.3,0.2-0.5s-0.1-0.4-0.2-0.5c-2-2-4.6-3.2-7.4-3.3v-3.3c7.8,0.4,14.1,6.8,14.1,14.7
			C-790.3,549.2-796.4,555.7-804.2,556z"/>
	</g>
	<g>
		<g>
			<path class="st0" d="M-774.8,532.8h9.7v1.7h-8v5.3h8v1.7h-8v6.7h8v1.7h-9.7V532.8z"/>
			<path class="st0" d="M-757.3,549.8l2.4-17h0.3l6.9,13.9l6.8-13.9h0.3l2.4,17h-1.6l-1.7-12.2l-6,12.2h-0.4l-6.1-12.2l-1.7,12.2
				H-757.3z"/>
			<path class="st0" d="M-730.2,549.8l2.4-17h0.3l6.9,13.9l6.8-13.9h0.3l2.4,17h-1.7l-1.6-12.2l-6,12.2h-0.4l-6.1-12.3l-1.7,12.2
				L-730.2,549.8L-730.2,549.8z"/>
			<path class="st0" d="M-695.2,532.8l7.9,17h-1.8l-2.7-5.6h-7.3l-2.6,5.6h-1.9l8-17H-695.2z M-695.4,536.4l-2.9,6.2h5.8
				L-695.4,536.4z"/>
			<path class="st0" d="M-679.2,532.8h3.4c1.9,0,3.2,0.1,3.8,0.2c1,0.2,1.8,0.7,2.5,1.5c0.6,0.8,0.9,1.7,0.9,2.8
				c0,0.9-0.2,1.7-0.7,2.4s-1.1,1.2-1.9,1.6c-0.8,0.4-1.9,0.5-3.4,0.5l6.1,7.9h-2.1l-6.1-7.9h-1v7.9h-1.7v-16.9H-679.2z
				 M-677.4,534.5v5.8h2.9c1.1,0,2-0.1,2.5-0.3s1-0.6,1.3-1c0.3-0.5,0.5-1,0.5-1.6s-0.2-1.1-0.5-1.6c-0.3-0.5-0.7-0.8-1.2-1
				s-1.3-0.3-2.5-0.3C-674.4,534.5-677.4,534.5-677.4,534.5z"/>
			<path class="st0" d="M-659.4,532.8h9.7v1.7h-8v5.3h8v1.7h-8v6.7h8v1.7h-9.7V532.8z"/>
			<path class="st0" d="M-643.1,546.6l1.4-0.9c1,1.9,2.2,2.8,3.5,2.8c0.6,0,1.1-0.1,1.6-0.4c0.5-0.3,0.9-0.6,1.1-1.1
				c0.3-0.4,0.4-0.9,0.4-1.4c0-0.6-0.2-1.1-0.6-1.7c-0.5-0.8-1.5-1.7-2.9-2.7c-1.4-1.1-2.3-1.8-2.6-2.3c-0.6-0.8-0.9-1.7-0.9-2.6
				c0-0.7,0.2-1.4,0.5-2c0.4-0.6,0.9-1.1,1.5-1.4c0.6-0.4,1.3-0.5,2.1-0.5c0.8,0,1.6,0.2,2.2,0.6c0.7,0.4,1.4,1.1,2.2,2.2l-1.4,1.1
				c-0.6-0.8-1.2-1.4-1.6-1.7c-0.5-0.3-0.9-0.4-1.5-0.4c-0.7,0-1.2,0.2-1.7,0.6c-0.5,0.4-0.7,0.9-0.7,1.5c0,0.4,0.1,0.7,0.2,1.1
				c0.2,0.3,0.4,0.7,0.8,1.1c0.2,0.2,1,0.8,2.2,1.7c1.5,1.1,2.5,2.1,3,2.9c0.5,0.8,0.8,1.7,0.8,2.6c0,1.2-0.5,2.3-1.4,3.2
				s-2.1,1.4-3.4,1.4c-1,0-2-0.3-2.8-0.8C-641.6,548.8-642.3,547.9-643.1,546.6z"/>
		</g>
	</g>
</g>
</svg>
